<svg id="图层_1" data-name="图层 1" xmlns="http://www.w3.org/2000/svg" viewBox="0 0 105.28 28"><defs><style>.cls-1{fill:#fff;}</style></defs><title>画板 2</title><polygon class="cls-1" points="33.06 21.5 35.24 21.5 35.24 15.1 42.34 15.1 42.34 13.24 35.24 13.24 35.24 9.08 42.76 9.08 42.76 7.22 33.06 7.22 33.06 21.5"/><path class="cls-1" d="M50.84,6.94A6.42,6.42,0,0,0,45.7,9.08a7.69,7.69,0,0,0-1.78,5.3,7.67,7.67,0,0,0,1.78,5.28,6.53,6.53,0,0,0,5.14,2.12A6.58,6.58,0,0,0,56,19.68a7.7,7.7,0,0,0,1.8-5.3A7.69,7.69,0,0,0,56,9.06,6.52,6.52,0,0,0,50.84,6.94Zm3.52,11.44a4.9,4.9,0,0,1-7.06,0,6.08,6.08,0,0,1-1.2-4,6.1,6.1,0,0,1,1.2-4,4.28,4.28,0,0,1,3.54-1.54,4.29,4.29,0,0,1,3.52,1.48,6.2,6.2,0,0,1,1.22,4A6.09,6.09,0,0,1,54.36,18.38Z"/><path class="cls-1" d="M68.62,19.08a4.84,4.84,0,0,1-6.14-.72,6.41,6.41,0,0,1-1.08-4,6.32,6.32,0,0,1,1.1-3.94A4,4,0,0,1,66,8.86a4.44,4.44,0,0,1,2.56.68,3.48,3.48,0,0,1,1.38,2.14H72a5.29,5.29,0,0,0-1.9-3.44A6.31,6.31,0,0,0,66,6.94a6.2,6.2,0,0,0-5.2,2.26,8,8,0,0,0-1.6,5.18,7.94,7.94,0,0,0,1.54,5.16A6.36,6.36,0,0,0,66,21.78a6.14,6.14,0,0,0,4-1.32,6.31,6.31,0,0,0,2.24-3.9H70.12A4.42,4.42,0,0,1,68.62,19.08Z"/><path class="cls-1" d="M83.88,16.1A4,4,0,0,1,83,18.94a4.73,4.73,0,0,1-5.66,0,3.93,3.93,0,0,1-.88-2.84V7.22H74.28v8.84a5.65,5.65,0,0,0,1.56,4.28,6,6,0,0,0,4.34,1.44,6.09,6.09,0,0,0,4.34-1.46,5.64,5.64,0,0,0,1.54-4.26V7.22H83.88Z"/><path class="cls-1" d="M97.78,14.6A21.34,21.34,0,0,0,94,13.2a15.79,15.79,0,0,1-2.48-.88A1.68,1.68,0,0,1,90.5,10.8a1.62,1.62,0,0,1,.92-1.56,4.49,4.49,0,0,1,2.16-.42A4,4,0,0,1,96,9.44a3.17,3.17,0,0,1,1.12,2H99.3A4.52,4.52,0,0,0,97.6,8a6.28,6.28,0,0,0-3.9-1.06,6.58,6.58,0,0,0-3.78,1,3.38,3.38,0,0,0-1.58,3A3.15,3.15,0,0,0,90,13.78,25.48,25.48,0,0,0,93.26,15a26.74,26.74,0,0,1,2.84,1,2.1,2.1,0,0,1,1.36,1.88,1.66,1.66,0,0,1-1,1.5,5.25,5.25,0,0,1-2.58.56,4.38,4.38,0,0,1-2.66-.66,3.51,3.51,0,0,1-1.2-2.42H87.9a5,5,0,0,0,1.94,4,8.62,8.62,0,0,0,8.28,0,3.55,3.55,0,0,0,1.5-3A3.44,3.44,0,0,0,97.78,14.6Z"/><rect class="cls-1" x="5.66" y="9.97" width="2.18" height="14.53"/><rect class="cls-1" x="8.89" y="6.99" width="2.18" height="17.51"/><rect class="cls-1" x="12.16" y="3.5" width="2.18" height="21"/><path class="cls-1" d="M15.54,3.5v21a10.5,10.5,0,0,0,0-21Z"/></svg>